<?xml version="1.0" encoding="utf-8"?><svg xmlns="http://www.w3.org/2000/svg" xmlns:xlink="http://www.w3.org/1999/xlink"><symbol class="asvg-inline--fa afa-check afa-w-16" viewBox="0 0 512 512" id="check" xmlns="http://www.w3.org/2000/svg"><path d="M173.898 439.404l-166.4-166.4c-9.997-9.997-9.997-26.206 0-36.204l36.203-36.204c9.997-9.998 26.207-9.998 36.204 0L192 312.69 432.095 72.596c9.997-9.997 26.207-9.997 36.204 0l36.203 36.204c9.997 9.997 9.997 26.206 0 36.204l-294.4 294.401c-9.998 9.997-26.207 9.997-36.204-.001z"/></symbol><symbol viewBox="0 0 512 512" id="inst" xmlns="http://www.w3.org/2000/svg"><path d="M352 0H160C71.648 0 0 71.648 0 160v192c0 88.352 71.648 160 160 160h192c88.352 0 160-71.648 160-160V160C512 71.648 440.352 0 352 0zm112 352c0 61.76-50.24 112-112 112H160c-61.76 0-112-50.24-112-112V160C48 98.24 98.24 48 160 48h192c61.76 0 112 50.24 112 112v192z"/><path d="M256 128c-70.688 0-128 57.312-128 128s57.312 128 128 128 128-57.312 128-128-57.312-128-128-128zm0 208c-44.096 0-80-35.904-80-80 0-44.128 35.904-80 80-80s80 35.872 80 80c0 44.096-35.904 80-80 80z"/><circle cx="393.6" cy="118.4" r="17.056"/></symbol><symbol viewBox="0 0 475.084 475.085" id="lightning" xmlns="http://www.w3.org/2000/svg"><path d="M362.296 125.055c-2.851-2.853-6.092-4.28-9.706-4.287-.77 0-1.902.193-3.432.572L236.1 149.319 284.917 17.13c.951-1.903 1.431-3.614 1.431-5.139 0-3.234-1.242-6.04-3.713-8.42C280.161 1.188 277.115 0 273.501 0h-93.645c-3.045 0-5.708.855-7.994 2.568-2.284 1.715-3.809 3.905-4.568 6.567l-57.386 235.546c-.953 4.564.284 8.277 3.711 11.135 2.473 2.099 5.421 3.139 8.848 3.139 1.524 0 2.666-.089 3.427-.281l115.914-28.838-56.244 230.691c-.76 3.045-.333 5.899 1.287 8.562 1.619 2.669 4.047 4.476 7.281 5.427 1.903.377 3.239.568 3.999.568 5.52 0 9.514-2.375 11.991-7.136l154.172-330.332c2.095-4.567 1.434-8.756-1.998-12.561z"/></symbol><symbol id="logo" viewBox="0 0 103 48" xmlns="http://www.w3.org/2000/svg"><style>.dst0{fill:#fff}.dst1{fill:#cbcac9}.dst2{fill:#dbdcdd}</style><path class="dst0" d="M101 27.7c-1.2 0-5.1 2.8-5.3 3-.2.2-.6.4.3-.6 1-1-1.8-4.3-3.4-3-1.5.9-3.9 3.4-4.1 3.6-.2.2-.2.1.3-.6 1-1-1.9-4.5-3.5-2.9-4.4 4.4-6.5 9.7-6.5 9.7v.1c-.8.5-1.6 1-2.1 1.2-1.3.6 4.2-5.6 4.1-7.9 0-1.7-2.4-4.3-3.6-3-.1.1-.2.3-.4.4-.6-.6-1.4-1-2.4-1.1-1.3-.2-3.6 1.5-5.6 3.8 1.3 3.2-.5 6-4 6.9l-.3.9c1.4.4 2.6 2.1 1.9 3.1-.2.3-.7 1-1.4 1.7.2.3.4.5.6.8 1.1 1.1 3.8-.4 6-2.1.2.9.5 1.7 1.2 2.2 1 .8 2.9.1 4.9-1.1 2.2-1.3 4.4-3.1 5.4-4 .7-.7.1-1.9-.6-2.7.5-.2.9-.2 1.1-.1.8.6 1.9 2.3 1.1 3.1-1 1-3.5 3-5.8 4.3.7.4 1.5.6 1.9.8.7.3 1.5-.3 1.7-.9 1-2.5 4-4.9 4-4.8 0 .2-.9 1.9-1.5 3.2-.6 1.4-.3 1.6.4 1.8 1 .3 1.4.4 2.3.6h.3c.7.3 1.5-.3 1.7-.9 1-2.5 4.1-4.9 4-4.8-.9 1.7-1.6 3.4-1.3 5.7.2 1.5.5 2.4 2 3 1 .3 1.8.5 2.8.7 1.1.2.1-1.5-.3-2.9-.7-2.5 4.2-10.7 5.5-12.6 1.5-1.6-.1-4.6-1.4-4.6zM70.4 38.3c-.4.2.7-2.8 3.5-5.2-.5 1-.9 2-1.2 3-.9.5-2.1 2.1-2.3 2.2zM33.9 21.7c-.6.5-.7.6-1.5 1.5s-.2 2.2.3 2.7l1.2 1.2c.7.7 1.5.3 1.7.1s1.2-1 2-1.6c.8-.7.4-1.2.1-1.6-.3-.5-1.2-1.8-1.9-2.5-.6-.7-1.3-.3-1.9.2z"/><path class="dst0" d="M64.7 38.6c-.4-.5-.9-.9-1.5-1-1.5-.4-3.3 2.5-3.2 1.1 0-.5.1-1 .3-1.5 2.1.1 3.9-.3 5.3-1.1 1.7-1 2.6-2.5 2.5-4.3-.1-1.2-.5-2.4-1.6-3.8-.4-.9-1.1-1.6-1.9-1.5-4.2.3-7.2 3.6-8.6 7.2-.5.1-1 .3-1.3.6-.4.4-2.1 2.6-1.9 2.1.3-1.1 2.8-6.6 5.7-12.7-2.2-.1-4.3-.1-5.4 0h-.4c-.8 1.7-1.6 3.4-2.3 5 .8 1 1.4 2.6.6 3.7-.6.9-2.9 4.5-4.6 7.4.1 1.4.4 2.7 1.2 3.3.4.3 1.5.8 2.1 1s2 .3 2.6-.6c1-1.4 2-2.4 3.1-3.4.9-.8 1.7-1.5 2.5-2.3.9-.8.6-2.5-.7-3.7.4 0 .8.1 1.2.4.7.6 1.1 1.4 1.2 2.1v.5c0 .4-.2.8-.5 1.1-1 1-2.1 1.9-3.3 3 .7 1.5 1.9 2.6 3.8 3s4-1.7 5-2.9c.2-.3.4-.5.5-.7.4-.6.2-1.4-.4-2zm-.5-6.9c-.3 2-2.2 3.3-3.5 4.2.7-1.8 2-3.2 3.5-4.2zm-15.9-9c.9.5 3 .3 4.3.2h.4c1.3-.1 3.5 0 5.7.1 3.1.1 6.3.4 7.7.5 1.6.2 4 .2 5.1-.7 2-1.7 2.3-3.2-1.1-3.8-2.2-.4-5.7-.7-9.3-1 3-6.4 5.8-12 6-12.5.5-1-.5-1.5-1.2-1s-1.8 1.1-3 2c-1.2.9-3.7 3-4.2 4.3-.1.2-1.4 3.1-3.2 6.9-2.8-.1-5.3-.2-7-.1-.8 0-1 .3-1 1v2.5c0 .5 0 1.2.8 1.6zm-22.6 6.4c.7-1-2-2.3-3.3-2.4-1.3-.1-2.1 1.3-2.3 1.7-.3.4-.9 1.2-1.8 1.2s-1.2-.5-1.6-1.2c-.4-.7-1-.6-1.6-.3-1.8.9-.9 3 0 3.9 1.1 1.1 2 1.1 2 1.1.7 0 5 1.5 8.6-4z"/><path class="dst0" d="M49.5 32c.4-.7.5-1.5.4-2.2-.2-1.4-1.2-2.7-2-2.7-1.3 0-5.1 2.9-5.4 3.1-.2.2-.6.4.3-.6 1-1.1-1.9-4.6-3.6-2.9-4.4 4.4-6.6 9.8-6.6 9.8-1-.7-3.3 3-3.9 3 .9-3.7 4.2-8.2 4.2-8.2 1-1-1.5-5.9-3.2-4.2-4.4 4.4-5.6 10.2-5.6 10.2-1 .5-2.9 2.8-3.4 2.7-.6-.1 1.1-4.1 2.9-7.5-1.5 1.6-3.9 3.1-7.1 2-1.6 6.1-.2 10 3.7 9.9 2.4 0 4.8-1.9 4.8-1.9s1.1 1.9 3 1.9c1.7 0 2.8-.7 3.3-1.2.1-.2.3-.4.5-.6.6-.7 2.1-3.2 2.6-4.4.2-.5-.5-.9-1.1-1.3.2 0 .3 0 .5.1 0 0 2 .9 1.7 1.6-.5 1.2-1.9 3.7-2.6 4.4-.2.2-.3.3-.4.5.7.4 1.5.6 2.1.8.7.2 1.6-.6 1.8-1.2 1-2.5 4.1-5 4.1-4.8s-1.1 2.2-1.7 3.6c-.6 1.4-.3 1.6.4 1.8 1 .3 1.4.4 2.3.6 1.1.2 1.3-.2 1.8-1.7.4-.9 2.2-4.3 3.7-7 1.2-1.5 2-2.9 2.5-3.6z"/><path class="dst0" d="M7.2 7.2l-.1.1c-.2.3-.1.7.2 1.2.7 1.1 2.6 2.2 3.3 1.7 2.5-1.7 4.9-2.8 7.1-3.5 2.1-.7 4-.9 5.7-.9 6.8.1 10.1 4.9 4.8 9.4-1.8 1.5-4.7 3-8.7 4.3-.7.2-1.5.5-2.3.7l1.2-2.1c.4-.8.9-1.6 1.3-2.3.4-.8.8-1.5 1.2-2.2 1.1-2.1 2-4.1 2.8-5.8 0-.1.1-.1.1-.2 0 .1-.1.1-.1.2-2.1 0-4.5.4-7.1 1.5-1 1.4-2.1 3.4-3.2 5.4-2.3 4-4.8 8.3-7.1 12.5C3.4 32.5.9 37.5 0 41.2v.1c-.3 2.2 4.4 5 4.9 3.6 1.7-4.9 4.5-10.4 7.4-15.8.5-.9.9-1.7 1.4-2.6.7-.1 1.5-.2 2.2-.4 40.3-7.6 13.2-40.3-8.7-18.9z"/><path class="dst1" d="M58.8 23c-2.2-.1-4.4-.2-5.7-.1-.1.3-.3.6-.4.8h.4c1.1-.1 3.2-.1 5.4 0 .1-.2.2-.5.3-.7z"/><path class="dst2" d="M83.8 36.1c-.2-.1-.6-.1-1.1.1.7.8 1.2 2 .6 2.7-.9.9-3.2 2.8-5.4 4 .3.2.7.4 1.2.6 2.3-1.3 4.8-3.3 5.8-4.3.9-.8-.3-2.5-1.1-3.1zM23.7 7.3c.3-.6.1-1.1-.3-1.6-1.7 0-3.7.2-5.7.9-.4.7-.8 1.5-1.2 2.3 2.6-1 5-1.5 7.1-1.5.1 0 .1 0 .1-.1zm41.1 31c0 .1 0 .1-.1.2.5.7.8 1.5.4 2.1-.1.2-.3.4-.5.7.1.6.3 1.2.7 1.8.7-.7 1.2-1.4 1.4-1.7.7-1-.5-2.7-1.9-3.1zm3.3-6.5c.1 1.8-.9 3.3-2.5 4.3-.2.5-.4.9-.5 1.4 3.6-.9 5.4-3.7 4-6.9-.4.3-.7.7-1 1.2zm-9.6 2.7c-.3-.3-.8-.4-1.2-.4 1.3 1.2 1.6 2.8.7 3.7-.8.8-1.7 1.5-2.5 2.3.1.4.2.8.4 1.1 1.2-1.2 2.3-2.1 3.3-3 .3-.3.5-.7.5-1.1v-.5c-.1-.7-.5-1.5-1.2-2.1zm-8.6-4.7c.1.8 0 1.5-.4 2.2-.5.7-1.3 2-2.1 3.5-.4.8-.6 1.4-.6 1.6-.2.8-.3 1.7-.3 2.6 1.7-2.9 4-6.5 4.6-7.4.8-1.2.2-2.7-.6-3.7-.2.5-.4.9-.6 1.2zM17 33.2l-.3 1.2c3.2 1.1 5.5-.4 7.1-2 .7-1.2 1.3-2.4 1.9-3.2-3.6 5.4-7.9 3.9-8.7 4zm16.9 3.7c-.2-.1-.3-.1-.5-.1.6.3 1.3.8 1.1 1.3-.5 1.2-1.9 3.7-2.6 4.4 0 .4.3.6.8.9.1-.2.3-.3.4-.5.6-.7 2.1-3.2 2.6-4.4.3-.7-1.8-1.6-1.8-1.6z"/></symbol><symbol class="esvg-inline--fa efa-envelope efa-w-16" viewBox="0 0 512 512" id="mail" xmlns="http://www.w3.org/2000/svg"><path d="M502.3 190.8c3.9-3.1 9.7-.2 9.7 4.7V400c0 26.5-21.5 48-48 48H48c-26.5 0-48-21.5-48-48V195.6c0-5 5.7-7.8 9.7-4.7 22.4 17.4 52.1 39.5 154.1 113.6 21.1 15.4 56.7 47.8 92.2 47.6 35.7.3 72-32.8 92.3-47.6 102-74.1 131.6-96.3 154-113.7zM256 320c23.2.4 56.6-29.2 73.4-41.4 132.7-96.3 142.8-104.7 173.4-128.7 5.8-4.5 9.2-11.5 9.2-18.9v-19c0-26.5-21.5-48-48-48H48C21.5 64 0 85.5 0 112v19c0 7.4 3.4 14.3 9.2 18.9 30.6 23.9 40.7 32.4 173.4 128.7 16.8 12.2 50.2 41.8 73.4 41.4z"/></symbol><symbol class="fsvg-inline--fa ffa-mobile ffa-w-10" viewBox="0 0 320 512" id="mobile" xmlns="http://www.w3.org/2000/svg"><path d="M272 0H48C21.5 0 0 21.5 0 48v416c0 26.5 21.5 48 48 48h224c26.5 0 48-21.5 48-48V48c0-26.5-21.5-48-48-48zM160 480c-17.7 0-32-14.3-32-32s14.3-32 32-32 32 14.3 32 32-14.3 32-32 32z"/></symbol><symbol class="gsvg-inline--fa gfa-map-marker-alt gfa-w-12" viewBox="0 0 384 512" id="place" xmlns="http://www.w3.org/2000/svg"><path d="M172.268 501.67C26.97 291.031 0 269.413 0 192 0 85.961 85.961 0 192 0s192 85.961 192 192c0 77.413-26.97 99.031-172.268 309.67-9.535 13.774-29.93 13.773-39.464 0zM192 272c44.183 0 80-35.817 80-80s-35.817-80-80-80-80 35.817-80 80 35.817 80 80 80z"/></symbol><symbol id="spec" viewBox="0 0 83.3 83.3" xmlns="http://www.w3.org/2000/svg"><style>.hst0{fill:#f79721}</style><path class="hst0" d="M52.4 34.8L38.6 64.4c-.2.4-.6.6-1.1.6-.1 0-.2 0-.4-.1-.6-.2-.9-.7-.8-1.3l5-20.7L31 45.7h-.3c-.3 0-.6-.1-.8-.3-.3-.3-.4-.6-.3-1l5.1-21.1c.1-.5.6-.8 1.1-.8h8.4c.6 0 1.2.5 1.2 1.1 0 .2-.1.3-.1.5l-4.4 11.8L51 33.4c.1 0 .2-.1.3-.1.3 0 .6.2.9.4.3.3.4.8.2 1.1z"/><path d="M38.5 5.4c1.5-.2 2.4.4 3 1l-1.1 1.3c-.5-.5-1-.7-1.7-.7-1.1.1-1.9 1-1.7 2.3.1 1.3 1 2 2.2 1.9.7-.1 1.1-.4 1.4-.9l1.4 1c-.4.7-1.2 1.5-2.7 1.6-2.2.2-4-1.2-4.2-3.4-.3-2.2 1.1-3.9 3.4-4.1zm9.8 2.3l-3-.4-.8 5.5-1.9-.3 1.1-7.2 6.7 1-1.1 7.2-1.9-.3.9-5.5zm8.3.7c2 .9 2.7 3 1.7 5.1l-.2.4-4.9-2.2c-.3.9.1 1.9 1.2 2.4.6.3 1.5.4 2.1.1l.3 1.5c-.9.3-2.1.2-3.1-.3-2-.9-2.9-2.9-2-5.1.8-1.9 2.9-2.8 4.9-1.9zm-2.9 2.1l3.3 1.4c.2-.6.2-1.7-1-2.2-1.1-.4-1.9.2-2.3.8zm3.8 6.6l4.6-5.6 1.5 1.2L60 17l2.2 1.8 3.5-4.3 1.5 1.2-3.5 4.3.6.5-2.2 2.7-1.3-1.1 1.2-1.4-4.5-3.6zm12.1 1.1l1.1 1.6-3.7 2.5 5.4-.1 1.1 1.6-6 4.1-1.1-1.6 3.8-2.6-5.6.1-1-1.5 6-4.1zm.6 14.7c-.7-.3-1.3-1-1.6-1.9-.4-1.1-.1-2.6 1.4-3.2 1.6-.6 2.6.5 3 1.6.3.9.3 1.8-.1 2.5l.9-.3c.7-.2.9-1 .6-1.9-.2-.7-.7-1.3-1.4-1.7l1-1.1c1 .6 1.8 1.5 2.1 2.6.5 1.6.4 3.2-1.5 3.9L70.2 35l-.6-1.8.6-.3zm1.8-.6c.3-.4.3-1.1.1-1.7-.2-.7-.8-1.2-1.5-.9-.6.2-.8.9-.6 1.6.2.6.6 1.1 1.1 1.2l.9-.2zm4 4.3h1.7l.4 5.8-7.2.5-.1-1.9 5.6-.4-.2-2.3h-.5c-4.1 0-5.3-1-5.5-2.8l1.8-.1c.1.6.8 1.2 4 1.2zM75.3 47l-.5 2.4c-.3 1.7-1.7 2.3-2.9 2-1.2-.2-2.3-1.3-1.9-3l.8-4.3 7.1 1.4-.4 1.9-2.2-.4zm-3.3-.7l-.4 2.1c-.1.6.2 1 .7 1.1.5.1.9-.1 1-.7l.4-2.1-1.7-.4zm3.7 8.4l-.8 1.7-2.4-1.2-1.3 2.7 2.4 1.2-.8 1.7-6.5-3.2.8-1.7 2.6 1.3 1.3-2.7-2.6-1.3.8-1.7 6.5 3.2zm-7.2 6c1.5 1.4 1.8 3.6.2 5.4-1.6 1.8-3.9 1.7-5.4.3-1.5-1.4-1.9-3.6-.2-5.4 1.6-1.8 3.9-1.7 5.4-.3zm-3.8 4.2c.8.8 2 .9 2.8 0 .8-.9.5-2-.3-2.8-.8-.8-2-.9-2.8 0-.8.9-.6 2 .3 2.8zm-3.5 7.5c-1.8 1.2-3.9.6-5.2-1.4l-.2-.4 4.5-2.9c-.6-.7-1.6-1-2.7-.3-.6.4-1.1 1-1.2 1.6l-1.4-.5c.3-1 1-1.8 2-2.5 1.9-1.2 4.1-.8 5.3 1.1 1.1 1.9.8 4.1-1.1 5.3zm-.2-3.6l-3 1.9c.4.6 1.3 1.1 2.4.4 1-.6.9-1.6.6-2.3zM46.2 76l3-.5-1-5.5 1.9-.3 1.2 7.1-6.7 1.2-1.2-7.1 1.9-.3.9 5.4zm-3.7-7.9l-1 10-1.9-.2.1-.9c-.6.6-1.5 1-2.3.9-1.9-.2-3.1-1.7-2.8-4.1.2-2.4 1.7-3.7 3.6-3.5.9.1 1.6.5 2.1 1.3l.4-3.7 1.8.2zm-4.4 8.1c.6.1 1.3-.2 1.7-.7l.3-2.6c-.3-.5-.9-.9-1.5-1-1.1-.1-1.9.7-2 1.9-.3 1.3.4 2.3 1.5 2.4zm-9.8-.7c-2-.8-2.8-2.8-1.9-5l.2-.4 5 2c.2-.9-.2-1.9-1.3-2.3-.6-.2-1.5-.3-2.1 0l-.3-1.5c.9-.4 2.1-.3 3.1.2 2.1.8 3.1 2.8 2.2 5-.8 1.8-2.8 2.8-4.9 2zm2.8-2.2L27.8 72c-.2.7-.1 1.7 1.1 2.1 1.1.4 1.9-.2 2.2-.8zm-5-5c-.7.3-1.6.9-3.1 2.7l-1.1 1.2-4.6-3.5 3.3-4.5-.6-.5 2.1-2.8 1.3 1-1.1 1.5 4 3 1.1-1.5 1.3 1-2.1 2.8-.5-.4zm-1.4-1.1l-2.5-1.9-2.3 3.1 1.9 1.4.4-.5c1.3-1.5 2-1.9 2.5-2.1zm-9.1-2.8l-1.4.9-3.5-4.7 5.8-4.3 1.1 1.5-4.5 3.3 1.4 1.9.4-.3c3.4-2.2 5-2.1 6.1-.6l-1.5 1.1c-.3-.5-1.2-.5-3.9 1.2zM12.7 57c-1.9.7-4.1 0-4.9-2.2-.9-2.2.2-4.2 2.2-4.9 1.9-.7 4.1 0 4.9 2.2.8 2.1-.3 4.1-2.2 4.9zm-2.1-5.3c-1 .4-1.7 1.4-1.3 2.5s1.6 1.4 2.6 1c1.1-.4 1.7-1.4 1.3-2.5-.4-1.2-1.5-1.5-2.6-1zm-.9-9.5v.4l3-.2.1 1.9-3 .2v.4l3.1 1.8.1 2.3-3.9-2.3-3.3 2.7-.1-2.2 2.8-2.1v-.4l-2.9.2-.1-1.9 2.9-.2v-.4l-3-1.7-.1-2.2 3.6 2.3 3.6-2.8.1 2.3-2.9 1.9zm-3.3-9.3c.5-2.1 2.4-3.1 4.7-2.6l.4.1-1.3 5.2c.9.1 1.8-.4 2.1-1.6.2-.7.1-1.5-.2-2.1l1.4-.5c.5.9.5 2 .3 3.1-.5 2.1-2.4 3.4-4.6 2.9-2.1-.5-3.4-2.4-2.8-4.5zM9 35.3l.9-3.5c-.7-.1-1.7.1-2 1.4-.4 1.2.4 1.9 1.1 2.1zm-.6-8.4l.9-1.7 2.3 1.3 1.5-2.6-2.3-1.3.9-1.7 6.3 3.5-.9 1.7-2.5-1.4-1.5 2.6 2.5 1.4-.9 1.7-6.3-3.5zm5.3-8.5l1.3-1.3 3.2 3.2-1-5.3 1.4-1.4 5.1 5.1-1.3 1.3-3.4-3.2 1.1 5.5-1.3 1.3-5.1-5.2zm10.1-8.5c1.9-1.1 4-.4 5.1 1.7l.2.4-4.7 2.7c.6.7 1.6 1 2.6.4.6-.3 1.1-1 1.3-1.6l1.3.7c-.3.9-1.1 1.8-2.1 2.3-1.9 1.1-4.1.6-5.2-1.4-.9-1.8-.4-4.1 1.5-5.2zm0 3.6l3.1-1.8c-.4-.6-1.2-1.1-2.3-.5-1.1.6-1.1 1.6-.8 2.3z"/></symbol><symbol viewBox="0 0 300 300" id="tg" xmlns="http://www.w3.org/2000/svg"><path d="M5.299 144.645l69.126 25.8 26.756 86.047c1.712 5.511 8.451 7.548 12.924 3.891l38.532-31.412a11.496 11.496 0 0 1 14.013-.391l69.498 50.457c4.785 3.478 11.564.856 12.764-4.926L299.823 29.22c1.31-6.316-4.896-11.585-10.91-9.259L5.218 129.402c-7.001 2.7-6.94 12.612.081 15.243zm91.57 12.066l135.098-83.207c2.428-1.491 4.926 1.792 2.841 3.726L123.313 180.87a23.112 23.112 0 0 0-7.163 13.829l-3.798 28.146c-.503 3.758-5.782 4.131-6.819.494l-14.607-51.325c-1.673-5.854.765-12.107 5.943-15.303z"/></symbol><symbol viewBox="0 0 548.358 548.358" id="vk" xmlns="http://www.w3.org/2000/svg"><path d="M545.451 400.298c-.664-1.431-1.283-2.618-1.858-3.569-9.514-17.135-27.695-38.167-54.532-63.102l-.567-.571-.284-.28-.287-.287h-.288c-12.18-11.611-19.893-19.418-23.123-23.415-5.91-7.614-7.234-15.321-4.004-23.13 2.282-5.9 10.854-18.36 25.696-37.397 7.807-10.089 13.99-18.175 18.556-24.267 32.931-43.78 47.208-71.756 42.828-83.939l-1.701-2.847c-1.143-1.714-4.093-3.282-8.846-4.712-4.764-1.427-10.853-1.663-18.278-.712l-82.224.568c-1.332-.472-3.234-.428-5.712.144l-3.713.859-1.431.715-1.136.859c-.952.568-1.999 1.567-3.142 2.995-1.137 1.423-2.088 3.093-2.848 4.996-8.952 23.031-19.13 44.444-30.553 64.238-7.043 11.803-13.511 22.032-19.418 30.693-5.899 8.658-10.848 15.037-14.842 19.126-4 4.093-7.61 7.372-10.852 9.849-3.237 2.478-5.708 3.525-7.419 3.142-1.715-.383-3.33-.763-4.859-1.143-2.663-1.714-4.805-4.045-6.42-6.995-1.622-2.95-2.714-6.663-3.285-11.136-.568-4.476-.904-8.326-1-11.563-.089-3.233-.048-7.806.145-13.706.198-5.903.287-9.897.287-11.991 0-7.234.141-15.085.424-23.555.288-8.47.521-15.181.716-20.125.194-4.949.284-10.185.284-15.705s-.336-9.849-1-12.991a44.442 44.442 0 0 0-2.99-9.137c-1.335-2.95-3.289-5.232-5.853-6.852-2.569-1.618-5.763-2.902-9.564-3.856-10.089-2.283-22.936-3.518-38.547-3.71-35.401-.38-58.148 1.906-68.236 6.855-3.997 2.091-7.614 4.948-10.848 8.562-3.427 4.189-3.905 6.475-1.431 6.851 11.422 1.711 19.508 5.804 24.267 12.275l1.715 3.429c1.334 2.474 2.666 6.854 3.999 13.134 1.331 6.28 2.19 13.227 2.568 20.837.95 13.897.95 25.793 0 35.689-.953 9.9-1.853 17.607-2.712 23.127-.859 5.52-2.143 9.993-3.855 13.418-1.715 3.426-2.856 5.52-3.428 6.28-.571.76-1.047 1.239-1.425 1.427a21.387 21.387 0 0 1-7.71 1.431c-2.667 0-5.901-1.334-9.707-4-3.805-2.666-7.754-6.328-11.847-10.992-4.093-4.665-8.709-11.184-13.85-19.558-5.137-8.374-10.467-18.271-15.987-29.691l-4.567-8.282c-2.855-5.328-6.755-13.086-11.704-23.267-4.952-10.185-9.329-20.037-13.134-29.554-1.521-3.997-3.806-7.04-6.851-9.134l-1.429-.859c-.95-.76-2.475-1.567-4.567-2.427a30.301 30.301 0 0 0-6.567-1.854l-78.229.568c-7.994 0-13.418 1.811-16.274 5.428l-1.143 1.711c-.571.953-.859 2.475-.859 4.57 0 2.094.571 4.664 1.714 7.707 11.42 26.84 23.839 52.725 37.257 77.659 13.418 24.934 25.078 45.019 34.973 60.237 9.897 15.229 19.985 29.602 30.264 43.112 10.279 13.515 17.083 22.176 20.412 25.981 3.333 3.812 5.951 6.662 7.854 8.565l7.139 6.851c4.568 4.569 11.276 10.041 20.127 16.416 8.853 6.379 18.654 12.659 29.408 18.85 10.756 6.181 23.269 11.225 37.546 15.126 14.275 3.905 28.169 5.472 41.684 4.716h32.834c6.659-.575 11.704-2.669 15.133-6.283l1.136-1.431c.764-1.136 1.479-2.901 2.139-5.276.668-2.379 1-5 1-7.851-.195-8.183.428-15.558 1.852-22.124 1.423-6.564 3.045-11.513 4.859-14.846 1.813-3.33 3.859-6.14 6.136-8.418 2.282-2.283 3.908-3.666 4.862-4.142.948-.479 1.705-.804 2.276-.999 4.568-1.522 9.944-.048 16.136 4.429 6.187 4.473 11.99 9.996 17.418 16.56 5.425 6.57 11.943 13.941 19.555 22.124 7.617 8.186 14.277 14.271 19.985 18.274l5.708 3.426c3.812 2.286 8.761 4.38 14.853 6.283 6.081 1.902 11.409 2.378 15.984 1.427l73.087-1.14c7.229 0 12.854-1.197 16.844-3.572 3.998-2.379 6.373-5 7.139-7.851.764-2.854.805-6.092.145-9.712-.677-3.611-1.344-6.136-2.008-7.563z"/></symbol><symbol viewBox="0 0 90 90" id="wp" xmlns="http://www.w3.org/2000/svg"><path d="M90 43.841c0 24.213-19.779 43.841-44.182 43.841a44.256 44.256 0 0 1-21.357-5.455L0 90l7.975-23.522a43.38 43.38 0 0 1-6.34-22.637C1.635 19.628 21.416 0 45.818 0 70.223 0 90 19.628 90 43.841zM45.818 6.982c-20.484 0-37.146 16.535-37.146 36.859 0 8.065 2.629 15.534 7.076 21.61L11.107 79.14l14.275-4.537A37.122 37.122 0 0 0 45.819 80.7c20.481 0 37.146-16.533 37.146-36.857S66.301 6.982 45.818 6.982zm22.311 46.956c-.273-.447-.994-.717-2.076-1.254-1.084-.537-6.41-3.138-7.4-3.495-.993-.358-1.717-.538-2.438.537-.721 1.076-2.797 3.495-3.43 4.212-.632.719-1.263.809-2.347.271-1.082-.537-4.571-1.673-8.708-5.333-3.219-2.848-5.393-6.364-6.025-7.441-.631-1.075-.066-1.656.475-2.191.488-.482 1.084-1.255 1.625-1.882.543-.628.723-1.075 1.082-1.793.363-.717.182-1.344-.09-1.883-.27-.537-2.438-5.825-3.34-7.977-.902-2.15-1.803-1.792-2.436-1.792-.631 0-1.354-.09-2.076-.09s-1.896.269-2.889 1.344c-.992 1.076-3.789 3.676-3.789 8.963 0 5.288 3.879 10.397 4.422 11.113.541.716 7.49 11.92 18.5 16.223C58.2 65.771 58.2 64.336 60.186 64.156c1.984-.179 6.406-2.599 7.312-5.107.9-2.512.9-4.663.631-5.111z"/></symbol></svg>